# xmcd
#
# Track frame offsets:
# 150
# 652
# 48767
# 66494
# 86064
# 105507
# 124839
#
# Disc length: 1900 seconds
#
#
# Revision: 0
# Processed by: cddbd v1.5.2PL0 Copyright (c) Steve Scherf et al.
# Submitted via: FreeRIP 2.942 
#
DISCID=54076a07
DTITLE=張國榮 - 99年巡禮
DYEAR=1900
DGENRE=A Cappella
TTITLE0=99年巡禮
TTITLE1=vcd
TTITLE2=路過蜻蜓
TTITLE3=你這樣恨我
TTITLE4=左右手
TTITLE5=枕頭
TTITLE6=I Honestly Love you
EXTD=
EXTT0=
EXTT1=
EXTT2=
EXTT3=
EXTT4=
EXTT5=
EXTT6=
PLAYORDER=
